# Blender v2.77 (sub 0) OBJ File: 'good-fighter.blend'
# www.blender.org
mtllib bot-light.mtl
o Bot_Charge_Light_Cube.001
v 1.137919 -0.494247 0.055452
v 1.137919 -0.494247 -0.363655
v 0.784164 -0.742580 -0.363655
v 0.784164 -0.742580 0.055452
v 1.293441 -0.125365 -0.363655
v 1.293441 -0.125365 0.055452
v 0.887829 -0.068276 0.055452
v 0.887829 -0.068276 -0.363655
v -1.137919 -0.494247 0.055452
v -1.137919 -0.494247 -0.363655
v -0.784164 -0.742580 -0.363655
v -0.784164 -0.742580 0.055452
v -1.293441 -0.125365 -0.363655
v -1.293441 -0.125365 0.055452
v -0.887829 -0.068276 0.055452
v -0.887829 -0.068276 -0.363655
vn 0.000000 0.000000 -1.000000
vn 0.921500 -0.388500 0.000000
vn 0.574600 -0.818500 0.000000
vn 0.000000 0.000000 1.000000
vn -0.988400 0.152000 0.000000
vn 0.139400 0.990200 0.000000
vn -0.921500 -0.388500 0.000000
vn -0.574600 -0.818500 0.000000
vn 0.988400 0.152000 0.000000
vn -0.139400 0.990200 0.000000
usemtl None
s off
f 8//1 2//1 3//1
f 6//2 2//2 5//2
f 3//3 1//3 4//3
f 7//4 1//4 6//4
f 8//5 4//5 7//5
f 7//6 5//6 8//6
f 16//1 10//1 13//1
f 10//7 14//7 13//7
f 9//8 11//8 12//8
f 9//4 15//4 14//4
f 12//9 16//9 15//9
f 13//10 15//10 16//10
f 8//1 5//1 2//1
f 6//2 1//2 2//2
f 3//3 2//3 1//3
f 7//4 4//4 1//4
f 8//5 3//5 4//5
f 7//6 6//6 5//6
f 16//1 11//1 10//1
f 10//7 9//7 14//7
f 9//8 10//8 11//8
f 9//4 12//4 15//4
f 12//9 11//9 16//9
f 13//10 14//10 15//10
