# Blender v2.77 (sub 0) OBJ File: 'good-fighter.blend'
# www.blender.org
mtllib top-light.mtl
o Top_Charge_Light_Cube.003
v 1.142688 1.601934 0.152500
v 1.142688 1.625028 -0.031766
v 0.817087 1.487742 -0.105259
v 0.817087 1.464648 0.143727
v 1.350832 0.889103 -0.078795
v 1.350832 0.866009 0.217862
v 0.950594 0.741477 0.162233
v 0.950594 0.764571 -0.151473
v -1.142688 1.601934 0.152500
v -1.142688 1.625028 -0.031766
v -0.817087 1.487742 -0.105259
v -0.817087 1.464648 0.143727
v -1.350832 0.889103 -0.078795
v -1.350832 0.866009 0.217862
v -0.950594 0.741477 0.162233
v -0.950594 0.764571 -0.151473
vn -0.388600 0.914300 0.114600
vn -0.057300 0.072200 0.995700
vn -0.983200 -0.181900 -0.013400
vn 0.962300 0.270000 0.033800
vn 0.150500 0.090700 -0.984400
vn 0.307900 -0.948800 -0.069800
vn 0.388600 0.914300 0.114600
vn 0.057300 0.072200 0.995700
vn 0.983400 -0.180500 -0.016700
vn -0.962300 0.270000 0.033800
vn -0.173800 0.111700 -0.978400
vn -0.307900 -0.948800 -0.069800
vn -0.403300 0.911200 0.084500
vn -0.137600 -0.000100 0.990500
vn -0.983400 -0.180500 -0.016700
vn 0.961500 0.273800 0.021300
vn 0.173800 0.111700 -0.978400
vn 0.305600 -0.949300 -0.073900
vn 0.403300 0.911200 0.084500
vn 0.137600 -0.000100 0.990500
vn 0.983200 -0.181900 -0.013400
vn -0.961500 0.273800 0.021300
vn -0.150500 0.090700 -0.984400
vn -0.305600 -0.949300 -0.073900
usemtl None
s off
f 2//1 4//1 1//1
f 4//2 6//2 1//2
f 4//3 8//3 7//3
f 1//4 5//4 2//4
f 3//5 5//5 8//5
f 5//6 7//6 8//6
f 12//7 10//7 9//7
f 14//8 12//8 9//8
f 12//9 16//9 11//9
f 13//10 9//10 10//10
f 11//11 13//11 10//11
f 15//12 13//12 16//12
f 2//13 3//13 4//13
f 4//14 7//14 6//14
f 4//15 3//15 8//15
f 1//16 6//16 5//16
f 3//17 2//17 5//17
f 5//18 6//18 7//18
f 12//19 11//19 10//19
f 14//20 15//20 12//20
f 12//21 15//21 16//21
f 13//22 14//22 9//22
f 11//23 16//23 13//23
f 15//24 14//24 13//24
