# Blender v2.77 (sub 0) OBJ File: 'sphere.blend'
# www.blender.org
mtllib sphere.mtl
o Cube
v 0.917945 -0.917945 -0.917945
v 0.917945 -0.917945 0.917945
v -0.917945 -0.917945 0.917945
v -0.917945 -0.917945 -0.917945
v 0.921533 0.921720 -0.921601
v 0.917944 0.917945 0.917946
v -0.917945 0.917945 0.917945
v -0.921533 0.921720 -0.921601
v 0.219934 -0.219934 0.000000
v 0.000000 -0.219934 -0.219934
v 0.219935 0.000000 -0.219934
v -0.000000 -0.219934 0.219934
v 0.219934 0.000000 0.219935
v -0.219934 -0.219934 -0.000000
v -0.219935 0.000000 0.219934
v -0.219934 0.000000 -0.219935
v 0.219934 0.219934 0.000000
v 0.000000 0.219934 -0.219934
v -0.000000 0.219934 0.219935
v -0.219935 0.219934 -0.000000
v 0.000000 0.000000 -0.219934
v -0.219934 0.000000 -0.000000
v -0.000000 0.000000 0.219934
v 0.219934 0.000000 0.000000
v -0.000000 0.219934 0.000000
v -0.000000 -0.219934 -0.000000
v 1.095270 -1.095270 0.305777
v -0.280520 -1.095270 -1.095270
v 1.095270 0.253255 -1.095270
v -0.246382 -1.095270 1.095270
v 1.095269 0.284009 1.095270
v -1.095270 -1.095270 -0.262004
v -1.095270 0.331358 1.095270
v -1.095270 0.321865 -1.095270
v 1.095270 1.095270 0.284822
v -0.221141 1.095270 -1.095270
v -0.281856 1.095270 1.095270
v -1.095270 1.095270 -0.379523
v 1.095270 -1.095270 -0.305777
v 0.280520 -1.095270 -1.095270
v 1.095270 -0.253255 -1.095270
v 0.246382 -1.095270 1.095270
v 1.095270 -0.284009 1.095270
v -1.095270 -1.095270 0.262003
v -1.095270 -0.331358 1.095270
v -1.095270 -0.321865 -1.095270
v 1.095270 1.095270 -0.284820
v 0.221142 1.095270 -1.095270
v 0.281854 1.095270 1.095270
v -1.095270 1.095270 0.379523
v -0.109967 0.000000 -0.219934
v 0.109967 0.000000 -0.219934
v 0.000000 0.109967 -0.219934
v 0.000000 -0.109967 -0.219934
v -0.219934 0.000000 -0.109967
v -0.219935 0.000000 0.109967
v -0.219934 -0.109967 -0.000000
v -0.219934 0.109967 -0.000000
v -0.109967 0.000000 0.219934
v 0.109967 0.000000 0.219935
v -0.000000 -0.109967 0.219934
v -0.000000 0.109967 0.219934
v 0.219934 0.000000 0.109967
v 0.219934 0.000000 -0.109967
v 0.219934 -0.109967 0.000000
v 0.219934 0.109967 0.000000
v -0.000000 0.219934 0.109967
v -0.000000 0.219934 -0.109967
v 0.109967 0.219934 0.000000
v -0.109967 0.219934 0.000000
v -0.109967 -0.219934 -0.000000
v 0.109967 -0.219934 0.000000
v 0.000000 -0.219934 -0.109967
v -0.000000 -0.219934 0.109967
v 0.268835 -1.303426 0.229248
v 0.268835 -1.303426 -0.308421
v -0.268834 -1.303426 -0.308421
v -0.253606 1.330700 -0.253606
v 0.253606 1.330700 -0.253605
v 0.253606 1.330700 0.253606
v 1.470289 0.153211 -0.153211
v 1.470289 -0.153211 -0.153211
v 1.470289 -0.153211 0.153212
v 0.259966 0.259967 1.405961
v 0.259967 -0.259967 1.405961
v -0.259967 -0.259967 1.405961
v -1.417006 0.185874 0.185873
v -1.417006 -0.185874 0.185873
v -1.417006 -0.185874 -0.185874
v 0.086671 -0.086671 -1.521093
v 0.086671 0.086671 -1.521093
v -0.086671 0.086671 -1.521093
v -0.086671 -0.086671 -1.521093
v -1.417006 0.185874 -0.185874
v -0.259967 0.259967 1.405961
v 1.470289 0.153211 0.153212
v -0.253606 1.330700 0.253606
v -0.268834 -1.303426 0.229248
vt 0.888122 0.864208
vt 0.890494 0.766608
vt 0.970445 0.789586
vt 0.987629 0.864208
vt 0.993118 0.654709
vt 0.993118 0.750459
vt 0.924200 0.741633
vt 0.892460 0.674810
vt 0.898464 0.451094
vt 0.787806 0.418171
vt 0.819459 0.350107
vt 0.898464 0.342356
vt 0.878809 0.967018
vt 0.780523 0.967018
vt 0.799088 0.893779
vt 0.867290 0.871902
vt 0.582506 0.801461
vt 0.582506 0.907021
vt 0.515077 0.900961
vt 0.479950 0.838466
vt 0.439160 0.891416
vt 0.332066 0.891416
vt 0.349511 0.820641
vt 0.411237 0.789371
vt 0.000000 0.175075
vt 0.155084 0.177304
vt 0.155084 0.189692
vt 0.050719 0.289785
vt 0.000000 0.155548
vt 0.155084 0.152529
vt 0.155084 0.164917
vt 0.155069 0.165426
vt 0.633808 0.500093
vt 0.510993 0.459793
vt 0.607386 0.354727
vt 0.620459 0.353898
vt 0.488273 0.342356
vt 0.346832 0.328827
vt 0.348694 0.316635
vt 0.465064 0.237888
vt 0.732269 0.500093
vt 0.779463 0.625039
vt 0.776310 0.623745
vt 0.763858 0.626580
vt 0.689812 0.171231
vt 0.788855 0.230278
vt 0.657188 0.297586
vt 0.644635 0.295180
vt 0.634134 0.500093
vt 0.634134 0.637264
vt 0.621128 0.635770
vt 0.531351 0.522431
vt 0.588441 0.000000
vt 0.647730 0.124763
vt 0.647457 0.124800
vt 0.634640 0.127375
vt 0.529368 0.648003
vt 0.618252 0.703065
vt 0.492726 0.777208
vt 0.479950 0.774457
vt 0.618707 0.171231
vt 0.644635 0.310610
vt 0.631721 0.312196
vt 0.511905 0.226582
vt 0.335733 0.171231
vt 0.484522 0.157574
vt 0.486084 0.169804
vt 0.485917 0.171231
vt 0.230905 0.325403
vt 0.330010 0.390325
vt 0.207056 0.464004
vt 0.194276 0.461293
vt 0.623277 0.801461
vt 0.489818 0.789297
vt 0.335733 0.488571
vt 0.200801 0.488571
vt 0.201360 0.488188
vt 0.204208 0.476096
vt 0.671883 0.342356
vt 0.767202 0.383459
vt 0.646754 0.464322
vt 0.633808 0.462453
vt 0.142827 0.804373
vt 0.010936 0.804373
vt 0.012941 0.792131
vt 0.133173 0.708921
vt 0.000000 0.657565
vt 0.130848 0.644944
vt 0.133912 0.656989
vt 0.133588 0.657565
vt 0.495973 0.154205
vt 0.498740 0.053829
vt 0.621823 0.129950
vt 0.624545 0.142077
vt 0.627540 0.154169
vt 0.627267 0.154205
vt 0.765646 0.012173
vt 0.684700 0.127427
vt 0.647730 0.038195
vt 0.764198 0.000000
vt 0.898464 0.439872
vt 0.913576 0.369240
vt 0.990368 0.342356
vt 0.996279 0.439872
vt 0.479950 0.372847
vt 0.606510 0.342356
vt 0.500759 0.928092
vt 0.573651 0.907021
vt 0.573754 0.999154
vt 0.479950 0.999154
vt 0.001090 0.561576
vt 0.127783 0.632900
vt 0.634134 0.903162
vt 0.727927 0.905794
vt 0.727927 1.000000
vt 0.650968 0.976783
vt 0.026145 0.349512
vt 0.022788 0.337533
vt 0.151259 0.327337
vt 0.151259 0.419078
vt 0.019432 0.325553
vt 0.018565 0.325403
vt 0.345626 0.500373
vt 0.479950 0.512976
vt 0.343446 0.512976
vt 0.342751 0.512464
vt 0.348500 0.488281
vt 0.474411 0.414514
vt 0.332066 0.985984
vt 0.359138 0.908696
vt 0.422005 0.891416
vt 0.428696 0.985984
vt 0.926821 0.079275
vt 0.903481 0.000000
vt 1.000000 0.002206
vt 1.000000 0.097769
vt 0.196002 0.550756
vt 0.313347 0.635974
vt 0.315024 0.648270
vt 0.180936 0.648270
vt 0.988631 0.596907
vt 0.887403 0.596907
vt 0.898164 0.500093
vt 0.973122 0.522561
vt 0.467304 0.654453
vt 0.468920 0.666608
vt 0.332066 0.666608
vt 0.345906 0.569043
vt 0.487173 0.801461
vt 0.486909 0.801386
vt 0.180936 0.458964
vt 0.181495 0.458582
vt 0.155084 0.140141
vt 0.050728 0.042704
vt 0.163016 0.000000
vt 0.168189 0.140142
vt 0.790156 0.253733
vt 0.821319 0.180449
vt 0.898394 0.171231
vt 0.898394 0.280690
vt 0.100216 0.495004
vt 0.140522 0.630017
vt 0.808796 0.781154
vt 0.888122 0.766608
vt 0.888122 0.871902
vt 0.780523 0.847625
vt 0.366579 0.062812
vt 0.482961 0.145344
vt 0.903481 0.000000
vt 0.903481 0.105103
vt 0.794006 0.074146
vt 0.827184 0.008538
vt 0.778318 0.010411
vt 0.794006 0.151685
vt 0.790989 0.008649
vt 0.794006 0.010206
vt 0.194416 0.152530
vt 0.335733 0.136843
vt 0.194401 0.165427
vt 0.194416 0.164917
vt 0.194416 0.140142
vt 0.298701 0.042856
vt 0.180936 0.985162
vt 0.203758 0.914650
vt 0.278925 0.894702
vt 0.278925 0.987601
vt 0.967634 0.886644
vt 0.986229 0.959583
vt 0.888122 0.959583
vt 0.889456 0.864208
vt 0.633370 0.324492
vt 0.488273 0.324492
vt 0.999179 0.266729
vt 0.898394 0.266729
vt 0.907895 0.171231
vt 0.978560 0.190315
vt 0.304698 0.660398
vt 0.317495 0.657829
vt 0.331149 0.792589
vt 0.226220 0.777811
vt 0.330292 0.655261
vt 0.331149 0.655454
vt 0.181310 0.189692
vt 0.190332 0.325403
vt 0.168189 0.190201
vt 0.168204 0.189692
vt 0.194416 0.189693
vt 0.298695 0.289838
vt 0.000000 0.871972
vt 0.035224 0.810998
vt 0.102250 0.804374
vt 0.102250 0.909913
vt 0.639090 0.559543
vt 0.751406 0.629415
vt 0.667248 0.809382
vt 0.739098 0.799500
vt 0.739098 0.903162
vt 0.634134 0.879383
vt 0.619596 0.648003
vt 0.479950 0.621013
vt 0.287683 0.792589
vt 0.287683 0.894702
vt 0.180936 0.871506
vt 0.207933 0.806663
vt 0.000000 0.790217
vt 0.031654 0.657565
vt 0.344417 0.342356
vt 0.344970 0.341020
vt 0.633808 0.353070
vt 0.633533 0.353069
vt 0.480125 0.000000
vt 0.495973 0.143894
vt 0.827707 0.654709
vt 0.892366 0.689482
vt 0.892460 0.766608
vt 0.780523 0.766608
vt 0.309034 0.488571
vt 0.326342 0.634387
vt 0.364177 0.786896
vt 0.332066 0.712807
vt 0.451841 0.666608
vt 0.451841 0.789371
vt 0.887403 0.500093
vt 0.887403 0.622008
vt 0.779463 0.575951
vt 0.807592 0.507903
vt 0.335733 0.485587
vt 0.367588 0.342356
vt 0.335733 0.314826
vt 0.354580 0.171231
vt 0.000866 0.355895
vt 0.013506 0.352704
vt 0.049860 0.495004
vt 0.000000 0.355745
vt 0.168189 0.189693
vt 0.159119 0.325403
vt 0.642765 0.488814
vt 0.644759 0.476568
vt 0.787806 0.489317
vt 0.643206 0.489317
vt 0.194416 0.177305
vt 0.335733 0.195413
vt 0.780523 0.785567
vt 0.767557 0.787214
vt 0.648508 0.701877
vt 0.742299 0.654709
vt 0.181310 0.140141
vt 0.186444 0.000000
vt 0.168204 0.140141
vt 0.168189 0.140650
vt 0.479950 0.652535
vt 0.452364 0.512976
vt 0.769278 0.799500
vt 0.634134 0.799500
vt 0.651188 0.321420
vt 0.654188 0.309503
vt 0.790156 0.323852
vt 0.653468 0.323852
vt 0.754008 0.641415
vt 0.634134 0.654709
vt 0.756610 0.653415
vt 0.759763 0.654709
vt 0.302002 0.648270
vt 0.180936 0.687203
vn -0.264300 -0.926100 0.269300
vn -0.266200 0.915200 0.302500
vn 0.890600 0.321500 0.321800
vn -0.318100 0.338700 0.885500
vn -0.902700 0.292200 -0.315700
vn -0.314400 -0.331200 -0.889700
vn -0.237200 -0.967400 -0.088700
vn -0.704000 -0.704000 -0.093800
vn -0.975700 -0.201700 -0.085600
vn -0.155900 0.971400 -0.178800
vn -0.214500 0.690700 -0.690700
vn -0.155700 0.231600 -0.960300
vn -0.141300 0.968000 0.207400
vn -0.675400 0.675400 0.296100
vn -0.973300 0.091600 0.210300
vn 0.128700 0.977500 0.167400
vn 0.170700 0.696700 0.696700
vn 0.128700 0.168200 0.977300
vn -0.972100 0.219400 0.083100
vn -0.672900 0.307300 0.672900
vn -0.179900 0.213800 0.960200
vn -0.013100 -0.273200 0.961900
vn -0.661700 -0.352500 0.661700
vn -0.970200 -0.240500 0.029000
vn -0.672500 -0.309100 -0.672500
vn 0.123900 -0.200000 -0.971900
vn 0.256900 -0.926100 0.276200
vn -0.969600 -0.235100 -0.067200
vn 0.276700 -0.917500 -0.285600
vn 0.057500 -0.270900 0.960900
vn -0.284100 -0.917700 -0.277800
vn 0.969600 -0.235100 -0.067200
vn 0.661700 -0.352500 0.661700
vn 0.672900 0.307300 0.672900
vn 0.974800 0.221900 -0.021600
vn -0.252800 0.917000 -0.308700
vn 0.086100 0.219300 0.971900
vn 0.270300 0.917600 -0.291500
vn -0.974800 0.221900 -0.021600
vn 0.283900 0.915500 0.284900
vn 0.086100 0.219300 -0.971900
vn -0.672900 0.307300 -0.672900
vn 0.170700 -0.696700 0.696700
vn 0.127700 -0.982000 -0.138900
vn 0.892600 0.312600 -0.324800
vn 0.129300 -0.187300 0.973800
vn 0.890500 -0.311200 -0.331900
vn 0.127700 0.982000 -0.138900
vn 0.890600 -0.317200 0.326000
vn 0.129300 -0.187300 -0.973800
vn 0.170700 0.696700 -0.696700
vn -0.675400 -0.675400 0.296100
vn 0.093800 -0.973200 0.210100
vn 0.328000 0.328900 0.885600
vn -0.975700 -0.055700 0.212000
vn 0.321000 -0.335800 0.885500
vn 0.093800 0.973200 0.210100
vn -0.311000 -0.345600 0.885300
vn 0.975700 -0.055700 0.212000
vn 0.675400 0.675400 0.296100
vn -0.214500 -0.690700 -0.690700
vn -0.155900 -0.969800 0.187600
vn -0.900700 0.297000 0.317000
vn -0.155700 -0.122300 -0.980200
vn -0.900600 -0.320300 0.293700
vn -0.155900 0.969800 0.187600
vn -0.900700 -0.318400 -0.295600
vn -0.155700 -0.122300 0.980200
vn -0.214500 0.690700 0.690700
vn -0.704000 0.704000 -0.093800
vn 0.177800 0.980500 -0.083500
vn 0.328100 -0.317500 -0.889700
vn -0.985500 0.149300 -0.080900
vn 0.314100 0.326100 -0.891600
vn 0.177800 -0.980500 -0.083500
vn -0.300400 0.339500 -0.891300
vn 0.985500 0.149300 -0.080900
vn 0.704000 -0.704000 -0.093800
vn -0.237200 0.967400 -0.088700
vn 0.704000 0.704000 -0.093800
vn 0.975700 -0.201700 -0.085600
vn -0.155900 -0.971400 -0.178800
vn -0.214500 -0.690700 0.690700
vn -0.155700 0.231600 0.960300
vn -0.141300 -0.968000 0.207400
vn 0.675400 -0.675400 0.296100
vn 0.973300 0.091600 0.210300
vn 0.128700 -0.977500 0.167400
vn 0.170700 -0.696700 -0.696700
vn 0.128700 0.168200 -0.977300
vn 0.972100 0.219400 0.083100
vn 0.672900 0.307300 -0.672900
vn -0.179900 0.213800 -0.960200
vn -0.079200 -0.202900 -0.976000
vn 0.672500 -0.309100 -0.672500
vn 0.970200 -0.240500 0.029000
usemtl Material
s off
f 98/1/1 30/2/1 3/3/1 44/4/1
f 97/5/2 50/6/2 7/7/2 37/8/2
f 96/9/3 35/10/3 6/11/3 31/12/3
f 95/13/4 37/14/4 7/15/4 33/16/4
f 94/17/5 38/18/5 8/19/5 34/20/5
f 93/21/6 28/22/6 4/23/6 46/24/6
f 92/25/7 51/26/7 16/27/7 34/28/7
f 91/29/8 52/30/8 21/31/8 53/32/8
f 90/33/9 40/34/9 10/35/9 54/36/9
f 89/37/10 55/38/10 16/39/10 46/40/10
f 88/41/11 56/42/11 22/43/11 57/44/11
f 87/45/12 50/46/12 20/47/12 58/48/12
f 86/49/13 59/50/13 15/51/13 45/52/13
f 85/53/14 60/54/14 23/55/14 61/56/14
f 84/57/15 49/58/15 19/59/15 62/60/15
f 83/61/16 63/62/16 13/63/16 43/64/16
f 82/65/17 64/66/17 24/67/17 65/68/17
f 81/69/18 47/70/18 17/71/18 66/72/18
f 80/73/19 67/74/19 19/59/19 49/58/19
f 79/75/20 68/76/20 25/77/20 69/78/20
f 78/79/21 38/80/21 20/81/21 70/82/21
f 77/83/22 71/84/22 14/85/22 32/86/22
f 76/87/23 72/88/23 26/89/23 73/90/23
f 75/91/24 42/92/24 12/93/24 74/94/24
f 72/95/25 75/91/25 74/94/25 26/96/25
f 9/97/26 27/98/26 75/99/26 72/100/26
f 27/101/27 2/102/27 42/103/27 75/104/27
f 40/34/28 76/105/28 73/106/28 10/35/28
f 1/107/29 39/108/29 76/109/29 40/110/29
f 39/111/30 9/112/30 72/88/30 76/87/30
f 28/113/31 77/114/31 32/115/31 4/116/31
f 10/117/32 73/118/32 77/119/32 28/120/32
f 73/118/33 26/121/33 71/122/33 77/119/33
f 68/123/34 78/124/34 70/125/34 25/126/34
f 18/127/35 36/128/35 78/124/35 68/123/35
f 36/129/36 8/130/36 38/131/36 78/132/36
f 47/70/37 79/75/37 69/78/37 17/71/37
f 5/133/38 48/134/38 79/135/38 47/136/38
f 48/137/39 18/138/39 68/139/39 79/140/39
f 35/141/40 80/142/40 49/143/40 6/144/40
f 17/145/41 69/146/41 80/147/41 35/148/41
f 69/149/42 25/150/42 67/74/42 80/73/42
f 64/151/43 81/69/43 66/72/43 24/152/43
f 11/153/44 29/154/44 81/155/44 64/156/44
f 29/157/45 5/158/45 47/159/45 81/160/45
f 39/111/46 82/161/46 65/162/46 9/112/46
f 1/163/47 41/164/47 82/165/47 39/166/47
f 41/167/48 11/168/48 64/66/48 82/65/48
f 27/169/49 83/170/49 43/171/49 2/172/49
f 9/97/50 65/173/50 83/174/50 27/98/50
f 65/173/51 24/175/51 63/176/51 83/174/51
f 60/177/52 84/178/52 62/179/52 23/180/52
f 13/181/53 31/182/53 84/178/53 60/177/53
f 31/183/54 6/184/54 49/185/54 84/186/54
f 42/92/55 85/53/55 61/56/55 12/93/55
f 2/187/56 43/188/56 85/189/56 42/190/56
f 43/64/57 13/63/57 60/191/57 85/192/57
f 30/193/58 86/194/58 45/195/58 3/196/58
f 12/197/59 61/198/59 86/199/59 30/200/59
f 61/198/60 23/201/60 59/202/60 86/199/60
f 56/203/61 87/204/61 58/205/61 22/206/61
f 15/207/62 33/208/62 87/204/62 56/203/62
f 33/209/63 7/210/63 50/211/63 87/212/63
f 44/213/64 88/41/64 57/44/64 14/214/64
f 3/215/65 45/216/65 88/217/65 44/218/65
f 45/52/66 15/51/66 56/219/66 88/220/66
f 32/221/67 89/222/67 46/223/67 4/224/67
f 14/85/68 57/225/68 89/226/68 32/86/68
f 57/227/69 22/228/69 55/38/69 89/37/69
f 52/229/70 90/33/70 54/36/70 21/230/70
f 11/168/71 41/167/71 90/231/71 52/232/71
f 41/233/72 1/234/72 40/235/72 90/236/72
f 48/137/73 91/237/73 53/238/73 18/138/73
f 5/239/74 29/240/74 91/241/74 48/242/74
f 29/154/75 11/153/75 52/30/75 91/29/75
f 36/243/76 92/244/76 34/245/76 8/246/76
f 18/127/77 53/247/77 92/248/77 36/128/77
f 53/32/78 21/31/78 51/26/78 92/25/78
f 51/249/79 93/250/79 46/40/79 16/39/79
f 21/251/80 54/252/80 93/253/80 51/254/80
f 54/252/81 10/117/81 28/120/81 93/253/81
f 55/255/82 94/256/82 34/28/82 16/27/82
f 22/257/83 58/258/83 94/259/83 55/260/83
f 58/258/84 20/81/84 38/80/84 94/259/84
f 59/261/85 95/262/85 33/208/85 15/207/85
f 23/180/86 62/179/86 95/262/86 59/261/86
f 62/263/87 19/264/87 37/265/87 95/266/87
f 63/267/88 96/268/88 31/182/88 13/181/88
f 24/269/89 66/270/89 96/268/89 63/267/89
f 66/271/90 17/145/90 35/148/90 96/272/90
f 67/273/91 97/274/91 37/265/91 19/264/91
f 25/275/92 70/276/92 97/277/92 67/278/92
f 70/276/93 20/47/93 50/46/93 97/277/93
f 71/279/94 98/280/94 44/213/94 14/214/94
f 26/281/95 74/282/95 98/280/95 71/279/95
f 74/283/96 12/197/96 30/200/96 98/284/96
