# Blender v2.77 (sub 0) OBJ File: 'sphere-bullet.blend'
# www.blender.org
mtllib sphere-bullet.mtl
o Cube
v 0.317977 -0.317977 -0.102322
v 0.317977 -0.317977 0.102322
v -0.317977 -0.317977 0.102322
v -0.317977 -0.317977 -0.102322
v 0.317977 0.317977 -0.102322
v 0.317977 0.317977 0.102322
v -0.317977 0.317977 0.102322
v -0.317977 0.317977 -0.102322
v 0.000000 -0.406029 -0.060443
v 0.000000 -0.406029 0.060443
v 0.000000 0.406029 -0.060443
v -0.000000 0.406029 0.060443
v 0.407007 0.000000 -0.060443
v 0.407007 0.000000 0.060443
v -0.407007 0.000000 0.060443
v -0.407007 0.000000 -0.060443
v 0.000000 0.000000 -0.188734
v -0.000000 0.000000 0.188734
vt 0.157501 0.776143
vt 0.261490 0.552285
vt 0.234734 0.776143
vt 0.000000 0.552285
vt 0.103989 0.776142
vt 0.026756 0.776143
vt 0.522981 1.000000
vt 0.418992 0.776143
vt 0.496224 0.776143
vt 0.250000 0.276143
vt 0.108430 0.000664
vt 0.319395 0.000000
vt 0.261490 0.552285
vt 0.365479 0.776143
vt 0.288246 0.776143
vt 0.750000 0.276143
vt 0.500000 0.120145
vt 0.680605 0.000000
vt 0.608430 0.551622
vt 0.819395 0.552285
vt 0.000000 0.432141
vt 0.180605 0.552285
vt 0.130745 1.000000
vt 0.000000 1.000000
vt 0.130745 1.000000
vt 0.261490 1.000000
vt 0.391570 0.551622
vt 0.500000 0.352426
vt 1.000000 0.432141
vt 1.000000 0.199859
vt 0.891570 0.000663
vt 0.261490 1.000000
vt 0.392235 1.000000
vt 0.500000 0.120145
vt 0.522981 0.552285
vt 0.392235 0.552285
vt 0.130745 0.552285
vt 0.130745 0.552285
vt 0.392235 1.000000
vt 0.000000 0.199859
vt 0.392235 0.552285
vt 0.500000 0.352426
vn -0.266900 -0.963700 0.000000
vn -0.266900 0.963700 -0.000000
vn 0.963000 0.269600 0.000000
vn -0.300400 -0.041400 0.952900
vn -0.963000 0.269600 -0.000000
vn -0.300400 0.041400 -0.952900
vn 0.300400 0.041400 -0.952900
vn 0.300400 -0.041400 0.952900
vn 0.266900 0.963700 0.000000
vn 0.266900 -0.963700 0.000000
vn -0.042100 -0.301000 0.952700
vn -0.042100 0.301000 -0.952700
vn 0.042100 0.301000 -0.952700
vn -0.963000 -0.269600 -0.000000
vn 0.042100 -0.301000 0.952700
vn 0.963000 -0.269600 0.000000
vn 0.042100 0.301000 0.952700
vn 0.042100 -0.301000 -0.952700
vn -0.042100 -0.301000 -0.952700
vn -0.042100 0.301000 0.952700
vn 0.300400 0.041400 0.952900
vn 0.300400 -0.041400 -0.952900
vn -0.300400 -0.041400 -0.952900
vn -0.300400 0.041400 0.952900
usemtl Material
s off
f 10/1/1 4/2/1 9/3/1
f 8/4/2 12/5/2 11/6/2
f 5/7/3 14/8/3 13/9/3
f 18/10/4 7/11/4 15/12/4
f 7/13/5 16/14/5 15/15/5
f 17/16/6 4/17/6 16/18/6
f 1/19/7 17/16/7 13/20/7
f 6/21/8 18/10/8 14/22/8
f 11/6/9 6/23/9 5/24/9
f 2/25/10 9/3/10 1/26/10
f 2/27/11 18/10/11 10/28/11
f 5/29/12 17/16/12 11/30/12
f 17/16/13 8/31/13 11/30/13
f 3/32/14 16/14/14 4/33/14
f 18/10/15 3/34/15 10/28/15
f 1/35/16 14/8/16 2/36/16
f 10/1/1 3/37/1 4/2/1
f 8/4/2 7/38/2 12/5/2
f 5/7/3 6/39/3 14/8/3
f 18/10/17 12/40/17 7/11/17
f 7/13/5 8/41/5 16/14/5
f 17/16/18 9/42/18 4/17/18
f 1/19/19 9/42/19 17/16/19
f 6/21/20 12/40/20 18/10/20
f 11/6/9 12/5/9 6/23/9
f 2/25/10 10/1/10 9/3/10
f 2/27/21 14/22/21 18/10/21
f 5/29/22 13/20/22 17/16/22
f 17/16/23 16/18/23 8/31/23
f 3/32/14 15/15/14 16/14/14
f 18/10/24 15/12/24 3/34/24
f 1/35/16 13/9/16 14/8/16
